<svg xmlns="http://www.w3.org/2000/svg" viewBox="0 0 188.86 15.1"><defs><style>.cls-1{fill:#69fff4;}</style></defs><title>Asset 3</title><g id="Layer_2" data-name="Layer 2"><g id="Layer_1-2" data-name="Layer 1"><path class="cls-1" d="M2.83,11.9,0,3.58H1.73L3,7.38l.85,2.91h.1l.84-2.91,1.3-3.8H7.74L4.88,11.9Z"/><path class="cls-1" d="M10.1,2.1a1.08,1.08,0,0,1-.8-.26.92.92,0,0,1-.24-.66V.91A.92.92,0,0,1,9.3.26,1.08,1.08,0,0,1,10.1,0a1,1,0,0,1,.78.26.92.92,0,0,1,.24.65v.27a.92.92,0,0,1-.24.66A1,1,0,0,1,10.1,2.1ZM9.22,3.58H11V11.9H9.22Z"/><path class="cls-1" d="M15.26,11.9,12.43,3.58h1.73l1.26,3.8.85,2.91h.1l.85-2.91,1.29-3.8h1.67L17.31,11.9Z"/><path class="cls-1" d="M22.53,2.1a1,1,0,0,1-.79-.26.89.89,0,0,1-.25-.66V.91a.88.88,0,0,1,.25-.65,1.32,1.32,0,0,1,1.57,0,.92.92,0,0,1,.24.65v.27a.92.92,0,0,1-.24.66A1,1,0,0,1,22.53,2.1Zm-.88,1.48h1.74V11.9H21.65Z"/><path class="cls-1" d="M32,11.9a1.36,1.36,0,0,1-1.05-.39,1.69,1.69,0,0,1-.45-1H30.4a2.06,2.06,0,0,1-.88,1.19,2.93,2.93,0,0,1-1.55.4,2.73,2.73,0,0,1-2-.68,2.36,2.36,0,0,1-.7-1.8,2.14,2.14,0,0,1,.9-1.88,4.74,4.74,0,0,1,2.65-.62h1.51v-.7a1.6,1.6,0,0,0-.42-1.19,1.77,1.77,0,0,0-1.3-.41,2,2,0,0,0-1.2.32,2.74,2.74,0,0,0-.78.81L25.6,5a3.33,3.33,0,0,1,1.17-1.16,3.68,3.68,0,0,1,2-.46,3.69,3.69,0,0,1,2.48.75,2.75,2.75,0,0,1,.86,2.16v4.18H33V11.9Zm-3.52-1.13a2.34,2.34,0,0,0,1.35-.36,1.12,1.12,0,0,0,.53-1V8.24H28.86c-1.2,0-1.8.37-1.8,1.12v.29a1,1,0,0,0,.37.84A1.75,1.75,0,0,0,28.46,10.77Z"/><path class="cls-1" d="M34.67,11.9V3.58h1.75V5h.08a2.7,2.7,0,0,1,.82-1.12,2.32,2.32,0,0,1,1.51-.45,2.45,2.45,0,0,1,2,.84,3.57,3.57,0,0,1,.72,2.39V11.9H39.79V6.85c0-1.3-.52-1.95-1.57-1.95a3,3,0,0,0-.66.08,1.82,1.82,0,0,0-.58.27,1.27,1.27,0,0,0-.41.45,1.29,1.29,0,0,0-.15.64V11.9Z"/><path class="cls-1" d="M53.52,13.84H50a6.87,6.87,0,0,1-2.59-.47,5.52,5.52,0,0,1-2-1.34A5.83,5.83,0,0,1,44.15,10a7.89,7.89,0,0,1-.44-2.68,7.8,7.8,0,0,1,.45-2.7,6.09,6.09,0,0,1,1.27-2.12,5.67,5.67,0,0,1,2-1.39A6.72,6.72,0,0,1,50.05.58,7.2,7.2,0,0,1,52.38,1a5.29,5.29,0,0,1,1.91,1.14A5.47,5.47,0,0,1,55.58,4a6.86,6.86,0,0,1,.48,2.68,7.53,7.53,0,0,1-.17,1.62,4,4,0,0,1-.54,1.29,2.7,2.7,0,0,1-.9.85,2.62,2.62,0,0,1-1.27.3,1.86,1.86,0,0,1-1.26-.39,1.51,1.51,0,0,1-.51-1h-.08a2.44,2.44,0,0,1-.71,1,1.9,1.9,0,0,1-1.21.38,2.38,2.38,0,0,1-1-.22,2.25,2.25,0,0,1-.84-.64A2.93,2.93,0,0,1,47,8.79a4.87,4.87,0,0,1-.21-1.51A4.87,4.87,0,0,1,47,5.77a2.93,2.93,0,0,1,.56-1.07,2.25,2.25,0,0,1,.84-.64,2.38,2.38,0,0,1,1-.22,1.7,1.7,0,0,1,1.15.36,2,2,0,0,1,.59.87h.08V4h1.39V8.62a1.07,1.07,0,0,0,.2.74.81.81,0,0,0,.6.21,1.13,1.13,0,0,0,1-.7,4.44,4.44,0,0,0,.35-2V6.26a4.7,4.7,0,0,0-.35-1.88,4.19,4.19,0,0,0-1-1.43,4.54,4.54,0,0,0-1.52-.9A5.43,5.43,0,0,0,50,1.73,5.3,5.3,0,0,0,48,2.12a4.67,4.67,0,0,0-2.63,2.69,5.4,5.4,0,0,0-.37,2v.8a5.61,5.61,0,0,0,.36,2,4.7,4.7,0,0,0,1,1.58,4.6,4.6,0,0,0,1.58,1,5.4,5.4,0,0,0,2.06.37h3.55Zm-3.7-4.35a1.38,1.38,0,0,0,1-.37,1.27,1.27,0,0,0,.37-.94V6.26a1.11,1.11,0,0,0-.37-.86,1.45,1.45,0,0,0-1-.34,1.39,1.39,0,0,0-1.12.44,1.72,1.72,0,0,0-.38,1.16V7.89a1.74,1.74,0,0,0,.38,1.16A1.42,1.42,0,0,0,49.82,9.49Z"/><path class="cls-1" d="M61.55,12.1a4,4,0,0,1-1.6-.31,3.26,3.26,0,0,1-1.2-.87A4,4,0,0,1,58,9.54a5.59,5.59,0,0,1-.26-1.8A5.67,5.67,0,0,1,58,5.94a4,4,0,0,1,.76-1.37A3.26,3.26,0,0,1,60,3.7a4.25,4.25,0,0,1,3.21,0,3.31,3.31,0,0,1,1.16.89A4,4,0,0,1,65,5.92a5.61,5.61,0,0,1,.23,1.62v.65H59.54v.27A2.21,2.21,0,0,0,60.1,10a2.11,2.11,0,0,0,1.63.61A2.38,2.38,0,0,0,63,10.31a3,3,0,0,0,.9-.91l1,1a3.34,3.34,0,0,1-1.34,1.23A4.46,4.46,0,0,1,61.55,12.1Zm0-7.35a2.18,2.18,0,0,0-.82.16,1.89,1.89,0,0,0-1,1.14,2.46,2.46,0,0,0-.14.88V7h3.87V6.88a2.3,2.3,0,0,0-.5-1.54A1.69,1.69,0,0,0,61.55,4.75Z"/><path class="cls-1" d="M70.45,12.1a4,4,0,0,1-1.6-.31,3.26,3.26,0,0,1-1.2-.87,3.84,3.84,0,0,1-.76-1.38,5.58,5.58,0,0,1-.27-1.8,5.67,5.67,0,0,1,.27-1.8,3.88,3.88,0,0,1,.76-1.37,3.26,3.26,0,0,1,1.2-.87,4.25,4.25,0,0,1,3.21,0,3.31,3.31,0,0,1,1.16.89,4,4,0,0,1,.69,1.32,5.29,5.29,0,0,1,.23,1.62v.65H68.43v.27A2.21,2.21,0,0,0,69,10a2.1,2.1,0,0,0,1.62.61,2.39,2.39,0,0,0,1.3-.33,3.12,3.12,0,0,0,.9-.91l1,1a3.4,3.4,0,0,1-1.34,1.23A4.46,4.46,0,0,1,70.45,12.1Zm0-7.35a2.23,2.23,0,0,0-.83.16,1.84,1.84,0,0,0-1,1.14,2.46,2.46,0,0,0-.15.88V7H72.3V6.88a2.3,2.3,0,0,0-.49-1.54A1.7,1.7,0,0,0,70.45,4.75Z"/><path class="cls-1" d="M79.29,12.1a4.08,4.08,0,0,1-1.6-.31,3.19,3.19,0,0,1-1.18-.87,4.14,4.14,0,0,1-.74-1.38,5.89,5.89,0,0,1-.25-1.8,6,6,0,0,1,.25-1.8,4.19,4.19,0,0,1,.74-1.37,3.19,3.19,0,0,1,1.18-.87,3.9,3.9,0,0,1,1.6-.31,3.5,3.5,0,0,1,2,.56,3.19,3.19,0,0,1,1.17,1.49l-1.44.67a1.85,1.85,0,0,0-.61-.92,1.87,1.87,0,0,0-1.17-.34,1.75,1.75,0,0,0-1.44.6A2.34,2.34,0,0,0,77.36,7V8.49A2.36,2.36,0,0,0,77.85,10a1.75,1.75,0,0,0,1.44.6,1.88,1.88,0,0,0,1.23-.38,2.62,2.62,0,0,0,.73-1l1.33.71a3.42,3.42,0,0,1-1.25,1.58A3.67,3.67,0,0,1,79.29,12.1Z"/><path class="cls-1" d="M86.88,12.1a4.21,4.21,0,0,1-2-.42,4.4,4.4,0,0,1-1.4-1.15l1.12-1a3.56,3.56,0,0,0,1,.88,2.74,2.74,0,0,0,1.32.31,1.81,1.81,0,0,0,1.14-.3,1,1,0,0,0,.38-.82.93.93,0,0,0-.27-.68,1.43,1.43,0,0,0-.92-.36l-.77-.1a3.83,3.83,0,0,1-2-.74A2.09,2.09,0,0,1,83.81,6,2.51,2.51,0,0,1,84,4.87a2.33,2.33,0,0,1,.63-.8,3,3,0,0,1,1-.5,4.17,4.17,0,0,1,1.26-.18,4.23,4.23,0,0,1,1.83.35,4.25,4.25,0,0,1,1.27,1l-1.07,1a3.15,3.15,0,0,0-.84-.66A2.46,2.46,0,0,0,86.9,4.8a1.67,1.67,0,0,0-1.07.29.92.92,0,0,0-.34.75.87.87,0,0,0,.3.72,2.12,2.12,0,0,0,1,.35l.77.1a3.68,3.68,0,0,1,2,.81,2.11,2.11,0,0,1,.64,1.6,2.47,2.47,0,0,1-.24,1.1,2.25,2.25,0,0,1-.66.84,3.11,3.11,0,0,1-1,.54A4.46,4.46,0,0,1,86.88,12.1Z"/><path class="cls-1" d="M93.12,12.1a1.13,1.13,0,0,1-.88-.32A1.08,1.08,0,0,1,92,11v-.24a1,1,0,0,1,1.17-1.09A1.14,1.14,0,0,1,94,10a1.12,1.12,0,0,1,.29.78V11a1.08,1.08,0,0,1-.29.77A1.14,1.14,0,0,1,93.12,12.1Z"/><path class="cls-1" d="M96.69.06h1.74V5h.08A2.27,2.27,0,0,1,99.4,3.8a2.57,2.57,0,0,1,1.45-.41,2.86,2.86,0,0,1,2.44,1.15,5.18,5.18,0,0,1,.87,3.2,5.19,5.19,0,0,1-.87,3.21,2.88,2.88,0,0,1-2.44,1.15,2.5,2.5,0,0,1-1.45-.42,2.33,2.33,0,0,1-.89-1.15h-.08V11.9H96.69Zm3.63,10.53a1.87,1.87,0,0,0,1.45-.58,2.16,2.16,0,0,0,.55-1.55V7a2.14,2.14,0,0,0-.55-1.54,1.87,1.87,0,0,0-1.45-.58A2.24,2.24,0,0,0,99,5.29a1.19,1.19,0,0,0-.55,1V9.17a1.21,1.21,0,0,0,.55,1A2.24,2.24,0,0,0,100.32,10.59Z"/><path class="cls-1" d="M109.42,12.1a4.08,4.08,0,0,1-1.6-.31,3.26,3.26,0,0,1-1.2-.87,4,4,0,0,1-.76-1.38,5.88,5.88,0,0,1-.26-1.8,6,6,0,0,1,.26-1.8,4,4,0,0,1,.76-1.37,3.26,3.26,0,0,1,1.2-.87,3.9,3.9,0,0,1,1.6-.31,3.85,3.85,0,0,1,1.61.32,3.22,3.22,0,0,1,1.16.89,4,4,0,0,1,.7,1.32,5.61,5.61,0,0,1,.23,1.62v.65h-5.71v.27A2.21,2.21,0,0,0,108,10a2.08,2.08,0,0,0,1.62.61,2.44,2.44,0,0,0,1.3-.33,3,3,0,0,0,.89-.91l1,1a3.27,3.27,0,0,1-1.34,1.23A4.46,4.46,0,0,1,109.42,12.1Zm0-7.35a2.18,2.18,0,0,0-.82.16,2,2,0,0,0-.64.45,2,2,0,0,0-.41.69,2.71,2.71,0,0,0-.14.88V7h3.87V6.88a2.3,2.3,0,0,0-.5-1.54A1.69,1.69,0,0,0,109.42,4.75Z"/><path class="cls-1" d="M115.05,11.9V3.58h1.75v1.6h.08a2.3,2.3,0,0,1,.73-1.12,2.35,2.35,0,0,1,1.56-.48h.46V5.26h-.69a3.13,3.13,0,0,0-1.59.34,1.07,1.07,0,0,0-.55,1V11.9Z"/><path class="cls-1" d="M121.18.06h1.75V7.33H123l1.15-1.49,2-2.26h2L125.28,6.8l3.26,5.1h-2.08l-2.38-4-1.15,1.24V11.9h-1.75Z"/><path class="cls-1" d="M132.86,12.1a4.08,4.08,0,0,1-1.6-.31,3.26,3.26,0,0,1-1.2-.87,4,4,0,0,1-.76-1.38,5.88,5.88,0,0,1-.26-1.8,6,6,0,0,1,.26-1.8,4,4,0,0,1,.76-1.37,3.26,3.26,0,0,1,1.2-.87,3.9,3.9,0,0,1,1.6-.31,3.85,3.85,0,0,1,1.61.32,3.31,3.31,0,0,1,1.16.89,4,4,0,0,1,.7,1.32,5.61,5.61,0,0,1,.23,1.62v.65h-5.71v.27a2.25,2.25,0,0,0,.56,1.57,2.11,2.11,0,0,0,1.63.61,2.38,2.38,0,0,0,1.29-.33,3,3,0,0,0,.9-.91l1,1a3.27,3.27,0,0,1-1.34,1.23A4.46,4.46,0,0,1,132.86,12.1Zm0-7.35a2.18,2.18,0,0,0-.82.16,1.85,1.85,0,0,0-.64.45,2,2,0,0,0-.41.69,2.46,2.46,0,0,0-.14.88V7h3.87V6.88a2.3,2.3,0,0,0-.5-1.54A1.69,1.69,0,0,0,132.86,4.75Z"/><path class="cls-1" d="M140.27,11.9a1.77,1.77,0,0,1-1.33-.45,1.74,1.74,0,0,1-.44-1.27V.06h1.74V10.48h1.15V11.9Z"/><path class="cls-1" d="M146.32,12.1a4,4,0,0,1-1.6-.31,3.26,3.26,0,0,1-1.2-.87,3.84,3.84,0,0,1-.76-1.38,5.58,5.58,0,0,1-.27-1.8,5.67,5.67,0,0,1,.27-1.8,3.88,3.88,0,0,1,.76-1.37,3.26,3.26,0,0,1,1.2-.87,4.25,4.25,0,0,1,3.21,0,3.31,3.31,0,0,1,1.16.89,3.78,3.78,0,0,1,.69,1.32A5.29,5.29,0,0,1,150,7.54v.65H144.3v.27a2.21,2.21,0,0,0,.57,1.57,2.1,2.1,0,0,0,1.62.61,2.39,2.39,0,0,0,1.3-.33,3.12,3.12,0,0,0,.9-.91l1,1a3.4,3.4,0,0,1-1.34,1.23A4.46,4.46,0,0,1,146.32,12.1Zm0-7.35a2.27,2.27,0,0,0-.83.16,1.84,1.84,0,0,0-1,1.14,2.46,2.46,0,0,0-.15.88V7h3.87V6.88a2.3,2.3,0,0,0-.49-1.54A1.7,1.7,0,0,0,146.32,4.75Z"/><path class="cls-1" d="M157,3.58h1.68l-3.51,10a3.14,3.14,0,0,1-.32.71,1.71,1.71,0,0,1-.44.48,1.52,1.52,0,0,1-.6.28,4,4,0,0,1-.83.08h-1V13.68h1.41l.48-1.41-3-8.69h1.74l1.67,4.9.48,1.81h.08l.52-1.81Z"/><path class="cls-1" d="M160.33,12.1a1.16,1.16,0,0,1-.88-.32,1.07,1.07,0,0,1-.28-.77v-.24a1.12,1.12,0,0,1,.28-.78,1.15,1.15,0,0,1,.88-.31,1.12,1.12,0,0,1,.88.31,1.08,1.08,0,0,1,.29.78V11a1,1,0,0,1-.29.77A1.13,1.13,0,0,1,160.33,12.1Z"/><path class="cls-1" d="M167,12.1a4,4,0,0,1-1.6-.31,3.38,3.38,0,0,1-1.21-.87,3.83,3.83,0,0,1-.75-1.38,5.58,5.58,0,0,1-.27-1.8,5.67,5.67,0,0,1,.27-1.8,3.87,3.87,0,0,1,.75-1.37,3.38,3.38,0,0,1,1.21-.87,4.22,4.22,0,0,1,3.2,0,3.22,3.22,0,0,1,1.16.89,4,4,0,0,1,.7,1.32,5.61,5.61,0,0,1,.23,1.62v.65H165v.27a2.21,2.21,0,0,0,.57,1.57,2.1,2.1,0,0,0,1.62.61,2.44,2.44,0,0,0,1.3-.33,3,3,0,0,0,.89-.91l1,1A3.37,3.37,0,0,1,169,11.64,4.41,4.41,0,0,1,167,12.1Zm0-7.35a2.23,2.23,0,0,0-.83.16,2,2,0,0,0-.64.45,2,2,0,0,0-.41.69,2.71,2.71,0,0,0-.14.88V7h3.87V6.88a2.25,2.25,0,0,0-.5-1.54A1.68,1.68,0,0,0,167,4.75Z"/><path class="cls-1" d="M177.84,10.53h-.08a2.33,2.33,0,0,1-.89,1.15,2.5,2.5,0,0,1-1.45.42A2.92,2.92,0,0,1,173,11a5.26,5.26,0,0,1-.86-3.21,5.25,5.25,0,0,1,.86-3.2,2.89,2.89,0,0,1,2.45-1.15,2.57,2.57,0,0,1,1.45.41A2.27,2.27,0,0,1,177.76,5h.08V.06h1.74V11.9h-1.74Zm-1.89.06a2.24,2.24,0,0,0,1.34-.39,1.21,1.21,0,0,0,.55-1V6.32a1.19,1.19,0,0,0-.55-1A2.24,2.24,0,0,0,176,4.9a1.91,1.91,0,0,0-1.46.58A2.18,2.18,0,0,0,174,7V8.46a2.2,2.2,0,0,0,.54,1.55A1.91,1.91,0,0,0,176,10.59Z"/><path class="cls-1" d="M187.12,10.53h-.07a2.93,2.93,0,0,1-.29.59,1.86,1.86,0,0,1-.47.5,2.12,2.12,0,0,1-.67.35,3,3,0,0,1-.9.13,2.49,2.49,0,0,1-2-.84A3.58,3.58,0,0,1,182,8.88V3.58h1.74V8.66c0,1.29.54,1.93,1.6,1.93a2.39,2.39,0,0,0,.66-.09,1.64,1.64,0,0,0,.57-.26,1.44,1.44,0,0,0,.4-.45,1.29,1.29,0,0,0,.15-.64V3.58h1.74V11.9h-1.74Z"/></g></g></svg>