<svg xmlns="http://www.w3.org/2000/svg" viewBox="0 0 113.74 13.84"><defs><style>.cls-1{fill:#69fff4;}</style></defs><title>Asset 1</title><g id="Layer_2" data-name="Layer 2"><g id="Layer_1-2" data-name="Layer 1"><path class="cls-1" d="M0,11.9V3.58H1.74v1.6h.08a2.33,2.33,0,0,1,.74-1.12,2.3,2.3,0,0,1,1.55-.48h.47V5.26H3.89A3.08,3.08,0,0,0,2.3,5.6a1.08,1.08,0,0,0-.56,1V11.9Z"/><path class="cls-1" d="M9.31,12.1a4,4,0,0,1-1.6-.31,3.26,3.26,0,0,1-1.2-.87,4,4,0,0,1-.76-1.38,5.88,5.88,0,0,1-.26-1.8,6,6,0,0,1,.26-1.8,4,4,0,0,1,.76-1.37,3.26,3.26,0,0,1,1.2-.87,3.87,3.87,0,0,1,1.6-.31,3.85,3.85,0,0,1,1.61.32,3.31,3.31,0,0,1,1.16.89,4,4,0,0,1,.7,1.32A5.61,5.61,0,0,1,13,7.54v.65H7.3v.27A2.25,2.25,0,0,0,7.86,10a2.11,2.11,0,0,0,1.63.61,2.38,2.38,0,0,0,1.29-.33,3,3,0,0,0,.9-.91l1,1a3.27,3.27,0,0,1-1.34,1.23A4.46,4.46,0,0,1,9.31,12.1Zm0-7.35a2.18,2.18,0,0,0-.82.16,1.85,1.85,0,0,0-.64.45,2,2,0,0,0-.41.69,2.46,2.46,0,0,0-.14.88V7h3.87V6.88a2.3,2.3,0,0,0-.5-1.54A1.69,1.69,0,0,0,9.31,4.75Z"/><path class="cls-1" d="M17.58,12.1a4.21,4.21,0,0,1-2-.42,4.37,4.37,0,0,1-1.39-1.15l1.12-1a3.53,3.53,0,0,0,1,.88,2.8,2.8,0,0,0,1.32.31,1.81,1.81,0,0,0,1.14-.3,1,1,0,0,0,.38-.82,1,1,0,0,0-.26-.68A1.48,1.48,0,0,0,18,8.53l-.77-.1a3.87,3.87,0,0,1-2-.74A2.09,2.09,0,0,1,14.51,6a2.52,2.52,0,0,1,.23-1.08,2.33,2.33,0,0,1,.63-.8,2.87,2.87,0,0,1,1-.5,4.17,4.17,0,0,1,1.26-.18,4.17,4.17,0,0,1,1.83.35,4.13,4.13,0,0,1,1.27,1l-1.07,1a2.86,2.86,0,0,0-.84-.66A2.43,2.43,0,0,0,17.6,4.8a1.64,1.64,0,0,0-1.06.29.93.93,0,0,0-.35.75.85.85,0,0,0,.31.72,2.08,2.08,0,0,0,1,.35l.77.1a3.68,3.68,0,0,1,2,.81,2.1,2.1,0,0,1,.63,1.6,2.61,2.61,0,0,1-.23,1.1,2.38,2.38,0,0,1-.67.84,2.93,2.93,0,0,1-1,.54A4.42,4.42,0,0,1,17.58,12.1Z"/><path class="cls-1" d="M27.89,10.53h-.07a2.93,2.93,0,0,1-.29.59,1.86,1.86,0,0,1-.47.5,2.12,2.12,0,0,1-.67.35,3,3,0,0,1-.9.13,2.48,2.48,0,0,1-2-.84,3.58,3.58,0,0,1-.71-2.38V3.58h1.74V8.66c0,1.29.54,1.93,1.6,1.93a2.44,2.44,0,0,0,.66-.09,1.64,1.64,0,0,0,.57-.26,1.58,1.58,0,0,0,.4-.45,1.29,1.29,0,0,0,.15-.64V3.58h1.74V11.9H27.89Z"/><path class="cls-1" d="M32.13,11.9V3.58h1.74V5H34a4.37,4.37,0,0,1,.31-.61,2.4,2.4,0,0,1,.45-.5,1.91,1.91,0,0,1,.63-.34,2.66,2.66,0,0,1,.84-.12,2.73,2.73,0,0,1,1.5.42,2.36,2.36,0,0,1,1,1.28h0a2.41,2.41,0,0,1,.86-1.2,2.63,2.63,0,0,1,1.65-.5,2.37,2.37,0,0,1,1.94.84,3.74,3.74,0,0,1,.68,2.39V11.9H42.08V6.83a2.37,2.37,0,0,0-.37-1.45,1.37,1.37,0,0,0-1.17-.48A2.74,2.74,0,0,0,39.9,5a1.56,1.56,0,0,0-.53.27A1.29,1.29,0,0,0,39,5.7a1.38,1.38,0,0,0-.14.62V11.9H37.1V6.83c0-1.29-.5-1.93-1.52-1.93A2.72,2.72,0,0,0,35,5a1.66,1.66,0,0,0-.55.27A1.19,1.19,0,0,0,34,5.7a1.26,1.26,0,0,0-.15.62V11.9Z"/><path class="cls-1" d="M49.5,12.1a4.08,4.08,0,0,1-1.6-.31,3.26,3.26,0,0,1-1.2-.87,4,4,0,0,1-.76-1.38,5.88,5.88,0,0,1-.26-1.8,6,6,0,0,1,.26-1.8,4,4,0,0,1,.76-1.37,3.26,3.26,0,0,1,1.2-.87,3.9,3.9,0,0,1,1.6-.31,3.85,3.85,0,0,1,1.61.32,3.22,3.22,0,0,1,1.16.89A4,4,0,0,1,53,5.92a5.61,5.61,0,0,1,.23,1.62v.65H47.49v.27A2.21,2.21,0,0,0,48.06,10a2.08,2.08,0,0,0,1.62.61,2.44,2.44,0,0,0,1.3-.33,3,3,0,0,0,.89-.91l1,1a3.37,3.37,0,0,1-1.35,1.23A4.46,4.46,0,0,1,49.5,12.1Zm0-7.35a2.22,2.22,0,0,0-.82.16,2,2,0,0,0-.64.45,2,2,0,0,0-.41.69,2.71,2.71,0,0,0-.14.88V7h3.87V6.88a2.3,2.3,0,0,0-.5-1.54A1.69,1.69,0,0,0,49.5,4.75Z"/><path class="cls-1" d="M64.7,13.84H61.14a6.92,6.92,0,0,1-2.6-.47,5.61,5.61,0,0,1-2-1.34A5.81,5.81,0,0,1,55.34,10a7.65,7.65,0,0,1-.44-2.68,7.8,7.8,0,0,1,.44-2.7,6.11,6.11,0,0,1,1.28-2.12,5.49,5.49,0,0,1,2-1.39A6.63,6.63,0,0,1,61.23.58,7.15,7.15,0,0,1,63.56,1a5.2,5.2,0,0,1,1.91,1.14A5.36,5.36,0,0,1,66.77,4a6.86,6.86,0,0,1,.48,2.68,6.93,6.93,0,0,1-.18,1.62,4,4,0,0,1-.53,1.29,2.73,2.73,0,0,1-.91.85,2.55,2.55,0,0,1-1.26.3,1.87,1.87,0,0,1-1.27-.39,1.51,1.51,0,0,1-.51-1h-.08a2.44,2.44,0,0,1-.71,1,1.9,1.9,0,0,1-1.21.38,2.37,2.37,0,0,1-1-.22,2.25,2.25,0,0,1-.84-.64,3.11,3.11,0,0,1-.57-1.07A4.87,4.87,0,0,1,58,7.28a4.87,4.87,0,0,1,.21-1.51,3.11,3.11,0,0,1,.57-1.07,2.25,2.25,0,0,1,.84-.64,2.37,2.37,0,0,1,1-.22,1.69,1.69,0,0,1,1.15.36,2,2,0,0,1,.6.87h.08V4h1.39V8.62a1,1,0,0,0,.2.74.78.78,0,0,0,.6.21,1.11,1.11,0,0,0,1-.7,4.42,4.42,0,0,0,.36-2V6.26a4.7,4.7,0,0,0-.36-1.88,4.06,4.06,0,0,0-1-1.43,4.44,4.44,0,0,0-1.52-.9,5.77,5.77,0,0,0-4,.07,4.94,4.94,0,0,0-1.6,1.07,4.93,4.93,0,0,0-1,1.62,5.61,5.61,0,0,0-.37,2v.8a5.61,5.61,0,0,0,.36,2,4.58,4.58,0,0,0,1,1.58,4.51,4.51,0,0,0,1.58,1,5.35,5.35,0,0,0,2,.37H64.7ZM61,9.49a1.39,1.39,0,0,0,1-.37,1.31,1.31,0,0,0,.37-.94V6.26a1.14,1.14,0,0,0-.37-.86,1.47,1.47,0,0,0-1-.34,1.38,1.38,0,0,0-1.12.44,1.68,1.68,0,0,0-.39,1.16V7.89a1.7,1.7,0,0,0,.39,1.16A1.41,1.41,0,0,0,61,9.49Z"/><path class="cls-1" d="M71.28,11.9,68.45,3.58h1.73l1.26,3.8.85,2.91h.09l.85-2.91,1.3-3.8h1.66L73.33,11.9Z"/><path class="cls-1" d="M78.54,2.1a1.07,1.07,0,0,1-.79-.26.93.93,0,0,1-.25-.66V.91a.92.92,0,0,1,.25-.65A1.07,1.07,0,0,1,78.54,0a1,1,0,0,1,.79.26.92.92,0,0,1,.24.65v.27a.92.92,0,0,1-.24.66A1,1,0,0,1,78.54,2.1Zm-.88,1.48h1.75V11.9H77.66Z"/><path class="cls-1" d="M83.71,11.9,80.88,3.58h1.73l1.26,3.8.85,2.91h.1l.84-2.91L87,3.58h1.66L85.76,11.9Z"/><path class="cls-1" d="M91,2.1a1.08,1.08,0,0,1-.8-.26.92.92,0,0,1-.24-.66V.91a.92.92,0,0,1,.24-.65A1.08,1.08,0,0,1,91,0a1,1,0,0,1,.78.26A.92.92,0,0,1,92,.91v.27a.92.92,0,0,1-.24.66A1,1,0,0,1,91,2.1ZM90.1,3.58h1.74V11.9H90.1Z"/><path class="cls-1" d="M95.41,12.1a1.13,1.13,0,0,1-.88-.32,1.08,1.08,0,0,1-.29-.77v-.24a1,1,0,0,1,1.17-1.09,1.14,1.14,0,0,1,.88.31,1.12,1.12,0,0,1,.29.78V11a1.08,1.08,0,0,1-.29.77A1.14,1.14,0,0,1,95.41,12.1Z"/><path class="cls-1" d="M101.62,12.1a4.25,4.25,0,0,1-2-.42,4.37,4.37,0,0,1-1.39-1.15l1.12-1a3.53,3.53,0,0,0,1,.88,2.8,2.8,0,0,0,1.32.31,1.81,1.81,0,0,0,1.14-.3,1,1,0,0,0,.12-1.5,1.48,1.48,0,0,0-.92-.36l-.77-.1a3.91,3.91,0,0,1-2-.74A2.12,2.12,0,0,1,98.54,6a2.52,2.52,0,0,1,.23-1.08,2.33,2.33,0,0,1,.63-.8,2.92,2.92,0,0,1,1-.5,4.06,4.06,0,0,1,1.25-.18,4.17,4.17,0,0,1,1.83.35,4.13,4.13,0,0,1,1.27,1l-1.07,1a2.86,2.86,0,0,0-.84-.66,2.41,2.41,0,0,0-1.19-.28,1.64,1.64,0,0,0-1.06.29.93.93,0,0,0-.35.75.85.85,0,0,0,.31.72,2.12,2.12,0,0,0,1,.35l.77.1a3.68,3.68,0,0,1,2,.81,2.1,2.1,0,0,1,.63,1.6,2.61,2.61,0,0,1-.23,1.1,2.47,2.47,0,0,1-.66.84,3.11,3.11,0,0,1-1,.54A4.46,4.46,0,0,1,101.62,12.1Z"/><path class="cls-1" d="M106.88.06h1.74V5h.08a2.72,2.72,0,0,1,.83-1.12A2.32,2.32,0,0,1,111,3.39a2.46,2.46,0,0,1,2,.84,3.57,3.57,0,0,1,.71,2.39V11.9H112V6.83c0-1.29-.52-1.93-1.57-1.93a3,3,0,0,0-.66.08,1.88,1.88,0,0,0-.59.27,1.37,1.37,0,0,0-.41.45,1.26,1.26,0,0,0-.15.62V11.9h-1.74Z"/></g></g></svg>