<?xml version="1.0" standalone="no"?>
<!DOCTYPE svg PUBLIC "-//W3C//DTD SVG 20010904//EN"
 "http://www.w3.org/TR/2001/REC-SVG-20010904/DTD/svg10.dtd">
<svg version="1.0" xmlns="http://www.w3.org/2000/svg"
 width="550.000000pt" height="550.000000pt" viewBox="0 0 550.000000 550.000000"
 preserveAspectRatio="xMidYMid meet">
<metadata>
Created by potrace 1.11, written by Peter Selinger 2001-2013
</metadata>
<g transform="translate(0.000000,550.000000) scale(0.100000,-0.100000)"
fill="#000000" stroke="none">
<path d="M250 2750 l0 -2500 2500 0 2500 0 0 2500 0 2500 -2500 0 -2500 0 0
-2500z m4598 2451 c214 -62 332 -178 332 -327 0 -124 -43 -190 -225 -340 l-99
-83 -116 112 c-128 123 -195 168 -285 192 -74 19 -118 19 -182 0 -140 -42
-209 -148 -278 -430 -28 -116 -95 -479 -95 -517 0 -7 89 -8 285 -3 l286 7 -5
-23 c-5 -21 -56 -316 -56 -322 0 -1 -124 -1 -275 1 l-274 4 -5 -24 c-3 -13
-21 -153 -41 -313 -131 -1056 -250 -1586 -451 -2005 -196 -408 -507 -708 -844
-815 -112 -35 -280 -44 -390 -21 -149 32 -287 120 -347 224 -20 33 -27 62 -30
116 -7 107 13 136 177 270 l134 108 16 -23 c115 -177 305 -289 423 -250 126
42 226 288 292 720 20 131 235 1964 235 2004 0 6 -68 8 -190 5 -104 -3 -190
-5 -190 -3 0 7 51 253 56 268 4 12 16 17 47 17 102 1 221 45 313 117 48 39 50
43 97 185 209 632 648 1060 1187 1158 144 27 390 22 498 -9z m-3504 -2000
c159 -77 243 -277 277 -652 13 -144 7 -581 -11 -853 -5 -82 -8 -151 -6 -153 6
-7 216 309 316 477 103 170 208 380 239 479 39 121 19 213 -59 270 -23 16 -47
32 -53 34 -7 2 15 44 56 105 193 286 450 399 607 265 55 -48 82 -104 88 -185
14 -193 -75 -392 -351 -792 -115 -166 -885 -1237 -900 -1252 -11 -11 -736
-149 -742 -142 -1 2 3 68 11 148 27 300 36 605 31 1015 -6 488 -18 578 -84
647 -53 56 -110 45 -278 -52 -50 -28 -94 -52 -99 -53 -8 -2 -65 199 -66 230 0
13 245 181 435 298 126 78 271 152 345 177 74 24 180 20 244 -11z"/>
</g>
</svg>
